<svg width="1361" height="160" viewBox="0 0 1361 160" fill="none" xmlns="http://www.w3.org/2000/svg">
<path opacity="0.4" d="M0 160L37.8056 149.3C75.6111 139 151.222 117 226.833 112C302.444 107 378.056 117 453.667 106.7C529.278 96 604.889 64 680.5 32C756.111 0 831.722 -32 907.333 -21.3C982.944 -11 1058.56 43 1134.17 42.7C1209.78 43 1285.39 -11 1323.19 -37.3L1361 -64V-128H1323.19C1285.39 -128 1209.78 -128 1134.17 -128C1058.56 -128 982.944 -128 907.333 -128C831.722 -128 756.111 -128 680.5 -128C604.889 -128 529.278 -128 453.667 -128C378.056 -128 302.444 -128 226.833 -128C151.222 -128 75.6111 -128 37.8056 -128H0V160Z" fill="#FFCDFD"/>
</svg>
