<svg width="1361" height="204" viewBox="0 0 1361 204" fill="none" xmlns="http://www.w3.org/2000/svg">
<path opacity="0.9" d="M1361 204L1323.19 193.3C1285.39 183 1209.78 161 1134.17 156C1058.56 151 982.944 161 907.333 150.7C831.722 140 756.111 108 680.5 76C604.889 44 529.278 12 453.667 22.7C378.056 33 302.444 87 226.833 86.7C151.222 87 75.6111 33 37.8056 6.7L2.47955e-05 -20V-84H37.8056C75.6111 -84 151.222 -84 226.833 -84C302.444 -84 378.056 -84 453.667 -84C529.278 -84 604.889 -84 680.5 -84C756.111 -84 831.722 -84 907.333 -84C982.944 -84 1058.56 -84 1134.17 -84C1209.78 -84 1285.39 -84 1323.19 -84H1361V204Z" fill="#FFCDFD"/>
</svg>
