<svg width="54" height="54" viewBox="0 0 54 54" fill="none" xmlns="http://www.w3.org/2000/svg">
<g clip-path="url(#clip0_17_23)">
<path d="M52.6234 24.6282L29.3714 1.37695C28.0332 0.0379229 25.8614 0.0379229 24.5211 1.37695L19.6931 6.20573L25.8179 12.3305C27.2417 11.85 28.8736 12.1723 30.008 13.3067C31.1483 14.4483 31.4681 16.0941 30.9758 17.5225L36.8786 23.4258C38.3067 22.9335 39.9549 23.2516 41.0949 24.394C42.6895 25.9875 42.6895 28.5706 41.0949 30.1649C40.7159 30.544 40.2659 30.8448 39.7707 31.05C39.2755 31.2552 38.7447 31.3608 38.2086 31.3608C37.6725 31.3608 37.1417 31.2552 36.6465 31.05C36.1513 30.8448 35.7013 30.544 35.3223 30.1649C34.753 29.5951 34.3649 28.8697 34.2068 28.0799C34.0488 27.2901 34.128 26.4712 34.4343 25.7263L28.9297 20.2217L28.9288 34.7093C29.3282 34.906 29.6928 35.1665 30.0084 35.4805C31.6022 37.0739 31.6022 39.6562 30.0084 41.253C28.4141 42.8464 25.8301 42.8464 24.2376 41.253C22.6437 39.6566 22.6437 37.0743 24.2376 35.4805C24.6194 35.098 25.0736 34.7954 25.5736 34.5903V19.9686C25.0732 19.764 24.6189 19.4612 24.2376 19.078C23.0302 17.8714 22.7395 16.0995 23.3588 14.6162L17.3205 8.57794L1.37701 24.5206C0.73378 25.164 0.372437 26.0366 0.372437 26.9464C0.372437 27.8562 0.73378 28.7287 1.37701 29.3722L24.6295 52.6234C25.9685 53.9624 28.1395 53.9624 29.4806 52.6234L52.6239 29.4802C53.2669 28.8365 53.6282 27.9639 53.6281 27.0541C53.628 26.1442 53.2666 25.2717 52.6234 24.6282Z" fill="#F34F29"/>
</g>
<defs>
<clipPath id="clip0_17_23">
<rect width="54" height="54" fill="white"/>
</clipPath>
</defs>
</svg>
