<svg width="54" height="54" viewBox="0 0 54 54" fill="none" xmlns="http://www.w3.org/2000/svg">
<path d="M52.6357 8.23494L28.4023 51.5691C27.9016 52.4639 26.6161 52.469 26.1086 51.5792L1.3943 8.24C0.840383 7.26885 1.66937 6.09393 2.77004 6.2901L27.0295 10.6257C27.1844 10.654 27.343 10.654 27.4978 10.6257L51.2494 6.29685C52.3454 6.0973 53.1795 7.26252 52.6357 8.23494Z" fill="url(#paint0_linear_18_51)"/>
<path d="M38.5847 0.603269L20.6525 4.11664C20.5093 4.14461 20.3795 4.21933 20.2835 4.32905C20.1874 4.43878 20.1305 4.57731 20.1217 4.72288L19.0177 23.3563C19.0118 23.4584 19.0297 23.5606 19.0701 23.6547C19.1105 23.7487 19.1722 23.8321 19.2504 23.8981C19.3286 23.9642 19.421 24.0111 19.5205 24.0353C19.62 24.0594 19.7237 24.0601 19.8235 24.0372L24.8168 22.8833C24.9243 22.8586 25.0363 22.8613 25.1426 22.8911C25.2488 22.921 25.3458 22.977 25.4248 23.0541C25.5037 23.1312 25.562 23.2269 25.5944 23.3324C25.6267 23.4379 25.6321 23.5498 25.6099 23.6579L24.1262 30.9222C24.1035 31.034 24.1102 31.1497 24.1457 31.2582C24.1812 31.3666 24.2443 31.4639 24.3287 31.5407C24.4131 31.6174 24.516 31.671 24.6273 31.696C24.7386 31.7211 24.8544 31.7168 24.9636 31.6836L28.0467 30.7458C28.5247 30.6007 28.9845 31.0209 28.8841 31.5103L26.5258 42.9207C26.379 43.6345 27.3282 44.0235 27.7239 43.4118L27.9876 43.0034L42.6014 13.8392C42.8469 13.3498 42.4237 12.7929 41.8884 12.8967L36.7478 13.889C36.6372 13.9104 36.5229 13.9031 36.416 13.8677C36.309 13.8323 36.2129 13.77 36.137 13.6868C36.061 13.6035 36.0077 13.5022 35.9822 13.3924C35.9567 13.2826 35.9599 13.1682 35.9914 13.06L39.3453 1.43225C39.3769 1.32368 39.3799 1.20882 39.3541 1.09873C39.3284 0.98865 39.2747 0.88706 39.1982 0.803755C39.1218 0.720451 39.0252 0.658243 38.9177 0.623127C38.8103 0.588011 38.6956 0.581172 38.5847 0.603269Z" fill="url(#paint1_linear_18_51)"/>
<defs>
<linearGradient id="paint0_linear_18_51" x1="0.790264" y1="4.74165" x2="30.9517" y2="45.7033" gradientUnits="userSpaceOnUse">
<stop stop-color="#41D1FF"/>
<stop offset="1" stop-color="#BD34FE"/>
</linearGradient>
<linearGradient id="paint1_linear_18_51" x1="25.6374" y1="1.5567" x2="31.0934" y2="38.9847" gradientUnits="userSpaceOnUse">
<stop stop-color="#FFEA83"/>
<stop offset="0.083" stop-color="#FFDD35"/>
<stop offset="1" stop-color="#FFA800"/>
</linearGradient>
</defs>
</svg>
