<svg width="1366" height="320" viewBox="0 0 1366 320" fill="none" xmlns="http://www.w3.org/2000/svg">
<g opacity="0.1" clip-path="url(#clip0_38_87)">
<path d="M-17 192L23 197.3C63 203 143 213 223 197.3C303 181 383 139 463 133.3C543 128 623 160 703 197.3C783 235 863 277 943 298.7C1023 320 1103 320 1183 298.7C1263 277 1343 235 1383 213.3L1423 192V320H1383C1343 320 1263 320 1183 320C1103 320 1023 320 943 320C863 320 783 320 703 320C623 320 543 320 463 320C383 320 303 320 223 320C143 320 63 320 23 320H-17V192Z" fill="#FF57F8"/>
</g>
<defs>
<clipPath id="clip0_38_87">
<rect width="1440" height="320" fill="white" transform="translate(-17)"/>
</clipPath>
</defs>
</svg>
